<?xml version="1.0" encoding="utf-8"?>
<!-- Generator: Adobe Illustrator 27.2.0, SVG Export Plug-In . SVG Version: 6.00 Build 0)  -->
<svg version="1.1" id="Layer_1" xmlns="http://www.w3.org/2000/svg" xmlns:xlink="http://www.w3.org/1999/xlink" x="0px" y="0px"
	 viewBox="0 0 128 128" style="enable-background:new 0 0 128 128;" xml:space="preserve">
<style type="text/css">
	.st0{fill:none;}
	.st1{fill:#F6F6F5;}
	.st2{fill:#4FA847;}
	.st3{fill:#293138;}
</style>
<rect x="4.2" y="4.2" class="st0" width="119.5" height="119.5"/>
<g>
	<path class="st1" d="M109,28.6L71.3,6.2c-2.3-1.3-4.8-2-7.3-2s-5,0.7-7.3,2L19,28.6c-4.5,2.7-7.3,7.6-7.3,13v44.8
		c0,5.3,2.8,10.3,7.3,13l37.7,22.4c2.3,1.3,4.8,2,7.3,2c2.5,0,5-0.7,7.3-2L109,99.4c4.5-2.7,7.3-7.6,7.3-13V41.6
		C116.3,36.3,113.5,31.3,109,28.6z M79.8,98.6l0.1,3.2c0,0.4-0.2,0.8-0.6,1l-1.9,1.1c-0.3,0.2-0.6,0-0.6-0.4l0-3.2
		c-1.6,0.7-3.3,0.8-4.3,0.4c-0.2-0.1-0.3-0.4-0.2-0.7l0.7-2.9c0.1-0.2,0.2-0.5,0.3-0.6c0.1-0.1,0.1-0.1,0.2-0.1
		c0.1-0.1,0.2-0.1,0.3,0c1.1,0.4,2.6,0.2,4-0.5c1.8-0.9,3-2.7,3-4.5c0-1.6-0.9-2.3-3.1-2.3c-2.7,0-5.3-0.5-5.3-4.6
		c0-3.3,1.7-6.8,4.4-9l0-3.2c0-0.4,0.2-0.8,0.6-1l1.8-1.2c0.3-0.2,0.6,0,0.6,0.4l0,3.3c1.4-0.5,2.5-0.7,3.6-0.4
		c0.2,0.1,0.3,0.4,0.2,0.8l-0.7,2.9c-0.1,0.2-0.2,0.4-0.3,0.6c-0.1,0.1-0.1,0.1-0.2,0.1c-0.1,0-0.2,0.1-0.3,0
		c-0.5-0.1-1.7-0.4-3.5,0.6c-1.9,1-2.6,2.6-2.6,3.9c0,1.5,0.8,1.9,3.4,2c3.5,0.1,5,1.6,5,5.1C84.4,92.6,82.6,96.3,79.8,98.6z
		 M106.1,38.1l-35.7,22c-4.5,2.6-7.7,5.5-7.7,10.9v44c0,3.2,1.3,5.3,3.3,5.9c-0.7,0.1-1.3,0.2-2,0.2c-2.1,0-4.2-0.6-6-1.6L20.3,97.1
		c-3.7-2.2-6-6.3-6-10.7V41.6c0-4.4,2.3-8.5,6-10.7L58,8.5c1.8-1.1,3.9-1.6,6-1.6s4.1,0.6,6,1.6l37.7,22.4c3.1,1.8,5.2,5,5.8,8.6
		C112.2,36.9,109.4,36.2,106.1,38.1z"/>
</g>
<g>
	<path class="st2" d="M99.1,90.7l-9.4,5.6c-0.2,0.1-0.4,0.3-0.4,0.6v2.5c0,0.3,0.2,0.4,0.5,0.3l9.5-5.8c0.2-0.1,0.3-0.4,0.3-0.7V91
		C99.6,90.7,99.4,90.6,99.1,90.7z"/>
</g>
<g>
	<path class="st3" d="M257,28.6L219.3,6.2c-2.3-1.3-4.8-2-7.3-2s-5,0.7-7.3,2L167,28.6c-4.5,2.7-7.3,7.6-7.3,13v44.8
		c0,5.3,2.8,10.3,7.3,13l37.7,22.4c2.3,1.3,4.8,2,7.3,2c2.5,0,5-0.7,7.3-2L257,99.4c4.5-2.7,7.3-7.6,7.3-13V41.6
		C264.3,36.3,261.5,31.3,257,28.6z M227.8,98.6l0.1,3.2c0,0.4-0.2,0.8-0.6,1l-1.9,1.1c-0.3,0.2-0.6,0-0.6-0.4l0-3.2
		c-1.6,0.7-3.3,0.8-4.3,0.4c-0.2-0.1-0.3-0.4-0.2-0.7l0.7-2.9c0.1-0.2,0.2-0.5,0.3-0.6c0.1-0.1,0.1-0.1,0.2-0.1
		c0.1-0.1,0.2-0.1,0.3,0c1.1,0.4,2.6,0.2,4-0.5c1.8-0.9,3-2.7,3-4.5c0-1.6-0.9-2.3-3.1-2.3c-2.7,0-5.3-0.5-5.3-4.6
		c0-3.3,1.7-6.8,4.4-9l0-3.2c0-0.4,0.2-0.8,0.6-1l1.8-1.2c0.3-0.2,0.6,0,0.6,0.4l0,3.3c1.4-0.5,2.5-0.7,3.6-0.4
		c0.2,0.1,0.3,0.4,0.2,0.8l-0.7,2.9c-0.1,0.2-0.2,0.4-0.3,0.6c-0.1,0.1-0.1,0.1-0.2,0.1c-0.1,0-0.2,0.1-0.3,0
		c-0.5-0.1-1.7-0.4-3.5,0.6c-1.9,1-2.6,2.6-2.6,3.9c0,1.5,0.8,1.9,3.4,2c3.5,0.1,5,1.6,5,5.1C232.4,92.6,230.6,96.3,227.8,98.6z
		 M247.6,93.2c0,0.3,0,0.6-0.3,0.7l-9.5,5.8c-0.2,0.1-0.5,0-0.5-0.3V97c0-0.3,0.2-0.5,0.4-0.6l9.4-5.6c0.2-0.1,0.5,0,0.5,0.3V93.2z
		 M254.1,38.1l-35.7,22c-4.5,2.6-7.7,5.5-7.7,10.9v44c0,3.2,1.3,5.3,3.3,5.9c-0.7,0.1-1.3,0.2-2,0.2c-2.1,0-4.2-0.6-6-1.6
		l-37.7-22.4c-3.7-2.2-6-6.3-6-10.7V41.6c0-4.4,2.3-8.5,6-10.7L206,8.5c1.8-1.1,3.9-1.6,6-1.6s4.1,0.6,6,1.6l37.7,22.4
		c3.1,1.8,5.2,5,5.8,8.6C260.2,36.9,257.4,36.2,254.1,38.1z"/>
</g>
</svg>
