<?xml version="1.0" encoding="UTF-8" standalone="no"?>
<svg
   viewBox="0 0 128 128"
   version="1.1"
   id="svg438"
   sodipodi:docname="sphinx-custom.svg"
   inkscape:version="1.2.1 (9c6d41e, 2022-07-14)"
   xml:space="preserve"
   xmlns:inkscape="http://www.inkscape.org/namespaces/inkscape"
   xmlns:sodipodi="http://sodipodi.sourceforge.net/DTD/sodipodi-0.dtd"
   xmlns="http://www.w3.org/2000/svg"
   xmlns:svg="http://www.w3.org/2000/svg"><defs
     id="defs442" /><sodipodi:namedview
     id="namedview440"
     pagecolor="#ffffff"
     bordercolor="#000000"
     borderopacity="0.25"
     inkscape:showpageshadow="2"
     inkscape:pageopacity="0.0"
     inkscape:pagecheckerboard="0"
     inkscape:deskcolor="#d1d1d1"
     showgrid="false"
     inkscape:zoom="2.2487329"
     inkscape:cx="48.249394"
     inkscape:cy="72.485265"
     inkscape:window-width="1512"
     inkscape:window-height="830"
     inkscape:window-x="0"
     inkscape:window-y="136"
     inkscape:window-maximized="0"
     inkscape:current-layer="svg438" /><g
     id="g1675"
     transform="matrix(0.26015719,0,0,0.26015719,-93.432173,80.222599)"><path
       style="fill:#234f77;fill-opacity:1"
       d="m 392.27512,-147.44956 c 8.32559,-1.46814 17.25846,-2.92173 22,-3.57994 2.2,-0.3054 4.4275,-0.95918 4.95,-1.45285 0.5225,-0.49366 1.6475,-0.88924 2.5,-0.87907 2.36054,0.0282 24.31041,-5.07235 26.28643,-6.10822 0.95504,-0.50066 2.86754,-0.91028 4.25,-0.91028 1.38246,0 2.51357,-0.34738 2.51357,-0.77195 0,-0.42457 2.90433,-1.32289 6.45408,-1.99627 3.54974,-0.67338 8.38724,-1.83612 10.75,-2.58388 2.36275,-0.74775 6.32092,-1.93931 8.79592,-2.6479 2.475,-0.70859 6.42822,-1.89847 8.78494,-2.64418 2.35672,-0.7457 5.16922,-1.35582 6.25,-1.35582 1.08078,0 1.96505,-0.45 1.96505,-1 0,-0.55 1.575,-1 3.5,-1 1.925,0 3.5,-0.45 3.5,-1 0,-0.55 1.125,-1 2.5,-1 1.375,0 2.5,-0.36113 2.5,-0.80252 0,-0.44139 2.1375,-1.30163 4.75,-1.91165 2.6125,-0.61003 6.55,-1.64077 8.75,-2.29053 2.2,-0.64977 5.575,-1.42264 7.5,-1.71751 1.925,-0.29486 3.725,-0.82691 4,-1.18234 0.275,-0.35543 4.1,-1.46748 8.5,-2.47122 4.4,-1.00374 9.03367,-2.22981 10.29705,-2.7246 1.26338,-0.4948 3.82432,-0.89963 5.69099,-0.89963 1.86666,0 3.62505,-0.37396 3.90753,-0.83103 0.28248,-0.45706 3.57154,-1.35837 7.30902,-2.00291 3.73747,-0.64453 10.65548,-1.84557 15.37334,-2.66897 12.69895,-2.21632 37.63583,-1.94121 51.42207,0.56732 6.05,1.10084 12.6875,2.27095 14.75,2.60023 2.0625,0.32929 3.75,0.94602 3.75,1.37052 0,0.4245 2.1375,0.97303 4.75,1.21896 5.34753,0.5034 20.83371,4.3181 23.48643,5.78541 0.95504,0.52826 3.09255,0.96047 4.75001,0.96047 1.65746,0 3.01357,0.45 3.01357,1 0,0.55 1.13703,1 2.52672,1 2.47816,0 17.29091,4.37418 20.70971,6.11555 0.95504,0.48645 2.84098,0.88445 4.19098,0.88445 1.35001,0 2.70847,0.41084 3.01881,0.91299 0.31034,0.50214 2.35954,1.2163 4.55378,1.58701 2.19424,0.37071 4.24344,1.08487 4.55378,1.58701 0.31034,0.50215 1.8877,0.91299 3.50524,0.91299 1.61754,0 2.94098,0.45 2.94098,1 0,0.55 1.26,1 2.8,1 1.54,0 3.2275,0.3898 3.75,0.86623 0.5225,0.47643 4.1,1.67257 7.95,2.65809 3.85,0.98552 7.4275,2.17072 7.95,2.63377 0.5225,0.46305 1.985,0.84191 3.25,0.84191 1.265,0 2.3,0.45 2.3,1 0,0.55 1.13111,1 2.51357,1 1.38246,0 3.29496,0.39645 4.25,0.881 8.35208,4.23751 38.52849,5.66315 53.95801,2.54916 10.00657,-2.01953 15.34391,-3.39924 17.51485,-4.52762 0.95504,-0.4964 2.64254,-0.90254 3.75,-0.90254 2.18384,0 2.7056,-2.67781 1.12301,-5.76357 -1.49671,-2.91831 -4.7714,-10.48902 -6.59048,-15.23643 -0.94835,-2.475 -2.12808,-5.28139 -2.62162,-6.23643 -0.49354,-0.95504 -0.89734,-2.41754 -0.89734,-3.25 0,-0.83246 -0.45,-1.51357 -1,-1.51357 -0.55,0 -1.01431,-0.7875 -1.0318,-1.75 -0.0337,-1.85159 -2.9682,-6.38008 -2.9682,-4.58042 0,0.57851 -2.3625,1.39165 -5.25,1.80697 -2.8875,0.41532 -8.175,1.18941 -11.75,1.72019 -12.37369,1.83715 -40,0.94395 -40,-1.29325 0,-0.49692 -1.13111,-0.90349 -2.51357,-0.90349 -1.38246,0 -3.29496,-0.40515 -4.25,-0.90034 -0.95504,-0.49518 -4.43643,-1.67618 -7.73643,-2.62444 -3.3,-0.94826 -6.78139,-2.11811 -7.73643,-2.59966 -0.95504,-0.48156 -2.61598,-0.87556 -3.69098,-0.87556 -1.07501,0 -2.23267,-0.45 -2.57259,-1 -0.33992,-0.55 -1.62648,-1 -2.85902,-1 -1.23254,0 -2.66848,-0.38711 -3.19098,-0.86025 -0.5225,-0.47314 -4.2125,-1.68488 -8.2,-2.69277 -3.9875,-1.00788 -7.25,-2.19577 -7.25,-2.63975 0,-0.44397 -1.575,-0.80723 -3.5,-0.80723 -1.925,0 -3.5,-0.39893 -3.5,-0.8865 0,-0.48758 -1.2375,-1.12172 -2.75,-1.40921 -1.5125,-0.28749 -5.45,-1.27032 -8.75,-2.18407 -3.3,-0.91375 -7.2375,-1.90568 -8.75,-2.20429 -1.5125,-0.29861 -2.75,-0.89459 -2.75,-1.32439 0,-0.42981 -1.6875,-0.99151 -3.75,-1.24824 -2.0625,-0.25672 -7.30949,-1.42899 -11.65997,-2.60503 -4.35048,-1.17605 -8.73798,-2.13827 -9.75,-2.13827 -1.01202,0 -1.84004,-0.45 -1.84004,-1.00001 0,-0.55 -2.25,-1 -5,-1 -2.75,0 -5,-0.45 -5,-1 0,-0.55 -1.6875,-1.01603 -3.75,-1.03562 -2.0625,-0.0196 -6.45,-0.68756 -9.75,-1.48438 -3.3,-0.79682 -8.1375,-1.45579 -10.75,-1.46438 -2.6125,-0.009 -4.75,-0.48369 -4.75,-1.05577 0,-1.29415 -36.28153,-0.65493 -46.5,0.81926 -14.67509,2.11712 -22.0603,3.46326 -23.73643,4.32655 -0.95504,0.49188 -3.54254,0.89434 -5.75,0.89434 -2.20746,0 -4.01357,0.45 -4.01357,1 0,0.55001 -1.16364,1.00001 -2.58587,1.00001 -2.99705,0 -15.09796,2.82391 -17.65056,4.119 -0.95504,0.48455 -3.09254,0.881 -4.75,0.881 -1.65746,0 -3.01357,0.45 -3.01357,1 0,0.55 -1.10383,1 -2.45295,1 -1.34912,0 -3.48662,0.39175 -4.75,0.87056 -1.26338,0.47881 -4.99705,1.66318 -8.29705,2.63193 -3.3,0.96875 -9.15,2.87001 -13,4.22501 -3.85,1.35501 -7.9,2.68397 -8.99999,2.95325 -4.64993,1.13829 -13.14741,3.57723 -15,4.30529 -1.1,0.4323 -4.025,1.3097 -6.5,1.94979 -2.475,0.64009 -6.5854,1.81639 -9.13421,2.61399 -2.54882,0.7976 -5.55976,1.45018 -6.69099,1.45018 -1.13122,0 -2.30415,0.40028 -2.60651,0.88951 -0.30237,0.48923 -2.01642,1.13926 -3.80902,1.4445 -1.7926,0.30524 -5.28427,1.01361 -7.75927,1.57416 -2.475,0.56055 -7.2764,1.59803 -10.66977,2.30551 -3.39338,0.70747 -6.50588,1.62382 -6.91667,2.03632 -0.41079,0.4125 -2.67034,0.75 -5.02121,0.75 -2.35087,0 -4.55243,0.45 -4.89235,1 -0.33992,0.55 -2.39758,1 -4.57259,1 -2.175,0 -4.73594,0.42868 -5.69098,0.95263 -0.95504,0.52395 -4.77393,1.23476 -8.48643,1.57959 -6.75,0.62697 -6.75,0.62697 -6.75,20.04737 0,22.13335 -0.99018,20.5533 11.5,18.35077 z"
       id="path1663" /><path
       id="path1661"
       style="fill:#234f77;fill-opacity:1"
       d="m 606.41211,-182.06055 c -13.23076,0.26397 -25.55937,1.7109 -40.13672,4.60547 -3.3,0.65526 -8.475,1.66272 -11.5,2.23828 -3.025,0.57556 -6.4,1.41811 -7.5,1.87305 -1.1,0.45494 -3.35,1.03474 -5,1.28906 -5.76475,0.88856 -21.00347,5.08647 -21.33398,5.87696 -0.18334,0.43848 -1.65205,0.79687 -3.26368,0.79687 -1.61162,0 -3.71097,0.41367 -4.66601,0.91797 -0.95504,0.5043 -4.43633,1.65565 -7.73633,2.55859 -3.3,0.90294 -6.78129,2.06427 -7.73633,2.58203 -0.95504,0.51776 -2.86754,0.94141 -4.25,0.94141 -1.38246,0 -2.51367,0.45 -2.51367,1 0,0.55 -1.32387,1 -2.94141,1 -1.61752,0 -3.20315,0.42514 -3.52343,0.94336 -0.32028,0.51822 -2.60137,1.24499 -5.07032,1.61523 -2.46893,0.37024 -4.73642,1.07206 -5.03711,1.5586 -0.30069,0.48653 -1.84265,0.88281 -3.42773,0.88281 -1.58508,0 -3.16008,0.45 -3.5,1 -0.33992,0.55 -2.39106,1 -4.55859,1 -2.16754,0 -3.94141,0.39202 -3.94141,0.86914 0,0.87804 -7.37172,2.85121 -14.25586,3.81641 -2.06595,0.28965 -4.00654,0.92997 -4.31055,1.42187 -0.30402,0.4919 -2.32465,0.89258 -4.49218,0.89258 -2.16754,0 -3.94141,0.40081 -3.94141,0.89063 0,0.48983 -1.4625,1.13852 -3.25,1.43945 -1.7875,0.30093 -6.85,1.2666 -11.25,2.14648 -21.8385,4.36709 -25.40668,5.04626 -31.75,6.04688 -4.74999,0.74928 -4.75,0.74963 -4.75,19.05469 0,13.050831 0.34091,18.515839 1.1875,19.039058 1.59042,0.982929 11.39276,3.48356 16.06836,4.09961 2.06595,0.272209 4.00458,0.898725 4.30859,1.390624 0.30402,0.4919 1.87661,0.892579 3.49414,0.892579 1.61754,0 2.94141,0.404254 2.94141,0.896484 0,0.49224 1.6875,1.114693 3.75,1.382813 3.17097,0.412229 11.63829,2.606888 25.75,6.677734 1.65,0.475979 6.82501,1.853888 11.5,3.060547 4.675,1.206659 8.92672,2.595691 9.44922,3.08789 0.5225,0.4922 2.18387,0.894532 3.69141,0.894532 1.50753,0 3.01945,0.45 3.35937,1 0.33992,0.549999 1.64171,1 2.89258,1 1.25087,0 2.56406,0.292587 2.91992,0.648437 0.95889,0.958889 10.91206,4.282533 12.9375,4.320313 0.9625,0.018 1.75,0.48125 1.75,1.03125 0,0.549999 1.575,1 3.5,1 1.925,0 3.5,0.345455 3.5,0.765625 0,0.420169 3.86102,1.645969 8.58008,2.724609 4.71905,1.078639 8.79519,2.310139 9.05859,2.736328 0.2634,0.42619 2.02739,0.773438 3.91992,0.773438 1.89254,0 3.44141,0.391561 3.44141,0.86914 0,0.47758 1.6875,1.148585 3.75,1.490235 2.0625,0.341659 6.9,1.330779 10.75,2.199218 3.85,0.86843 8.35,1.803326 10,2.078125 1.65,0.27481 3.9,0.892685 5,1.371094 1.1,0.47842 3.575,1.08572 5.5,1.349609 7.59476,1.041159 18.70227,2.632027 22.5,3.222657 2.2,0.342149 7.375,0.829251 11.5,1.082031 4.125,0.25278 8.175,0.725595 9,1.052734 2.18955,0.86821 43.23061,1.092762 45,0.246094 2.37455,-1.136229 14,-1.689474 14,-0.666016 0,1.448988 -37.13802,37.6168534 -48,46.7460942 -1.375,1.1556589 -3.625,3.0908325 -5,4.3007813 -1.375,1.2099585 -4.29072,3.5411595 -6.47851,5.1796875 -2.1878,1.638528 -5.29217,4.216017 -6.89844,5.728516 -1.60627,1.512498 -3.27202,2.75 -3.70117,2.75 -0.42914,0 -1.37479,0.572715 -2.10157,1.271484 -0.72679,0.698779 -3.79531,3.053877 -6.82031,5.234375 -3.025,2.180488 -5.95,4.315671 -6.5,4.744141 -2.85284,2.222477 -8.70924,5.75 -9.54492,5.75 -0.52557,0 -0.95508,0.45 -0.95508,1 0,0.549999 -0.44115,1 -0.98047,1 -0.53932,0 -3.44387,1.575002 -6.45312,3.5 -3.00926,1.924998 -6.16812,3.5 -7.01953,3.5 -0.85142,0 -1.54688,0.396442 -1.54688,0.880859 0,1.472569 -20.52724,10.967504 -29.5,13.644531 -3.3,0.984559 -6.42867,2.169063 -6.95117,2.632813 -0.5225,0.463739 -2.11883,0.841797 -3.54883,0.841797 -1.43,0 -3.02828,0.385419 -3.55078,0.855468 -0.5225,0.47006 -6.10908,1.660183 -12.41602,2.644532 -9.10884,1.421658 -14.2503,1.64536 -25,1.08789 -14.21981,-0.737419 -28.35437,-2.569352 -29.61914,-3.83789 -0.41127,-0.4125 -2.47174,-0.75 -4.58007,-0.75 -2.10833,0 -3.83399,-0.450001 -3.83399,-1 0,-0.55 -0.60268,-1 -1.33984,-1 -1.94159,0 -13.24538,-5.794396 -14.6836,-7.527344 -0.67154,-0.809159 -1.72946,-1.48486 -2.34961,-1.5 -0.62016,-0.0151 -2.25195,-1.615886 -3.62695,-3.558594 -1.375,-1.942718 -2.95,-4.068017 -3.5,-4.722656 -1.19264,-1.419559 -2.84863,-4.782675 -4.95508,-10.0625 -2.05848,-5.159605 -1.97946,-17.094835 0.16407,-24.804688 2.06965,-7.4441524 8.62545,-14.707919 14.99804,-16.6171871 6.14574,-1.8413082 6.29297,-1.7424721 6.29297,4.2636719 0,3.5110264 0.67099,6.6442521 1.87305,8.75 1.02993,1.8042282 2.68111,4.6656262 3.66992,6.3593752 1.82676,3.129067 6.45911,6.419922 9.03711,6.419922 0.78043,0 1.41992,0.45 1.41992,1 0,0.549999 1.95521,1 4.3457,1 4.50622,0 9.73933,-2.076166 13.0918,-5.195313 1.06621,-0.992009 2.30371,-1.804687 2.75,-1.804687 0.44629,0 0.8125,-0.675001 0.8125,-1.5 0,-0.825 0.3972,-1.5 0.88281,-1.5 1.28669,0 6.11719,-10.6338201 6.11719,-13.4667972 0,-1.32749872 0.45,-2.6932835 1,-3.0332032 1.22553,-0.7574192 1.3383,-10.1717296 0.13086,-10.9179686 -0.47775,-0.29527 -1.15797,-2.346406 -1.51172,-4.558594 -0.35374,-2.212188 -1.08736,-4.023437 -1.63086,-4.023437 -0.5435,0 -0.98828,-0.900001 -0.98828,-2 0,-1.099999 -0.45,-2 -1,-2 -0.55,0 -1,-0.499962 -1,-1.113282 0,-1.430898 -6.8098,-7.690653 -9.1875,-8.445312 -0.99745,-0.31658 -1.8125,-0.994873 -1.8125,-1.507813 0,-0.512929 -1.08685,-0.933593 -2.41601,-0.933593 -1.32916,0 -2.59794,-0.539903 -2.81836,-1.201172 -0.55139,-1.654158 -27.34494,-1.619868 -29.00196,0.03711 -0.64057,0.640609 -2.64984,1.164063 -4.46484,1.164063 -1.815,0 -3.29883,0.45 -3.29883,1 0,0.549999 -1.0125,1.005275 -2.25,1.009765 -4.21607,0.0153 -21.62997,12.039889 -23.15625,15.990235 -0.31875,0.824999 -1.89723,3.525002 -3.50781,6 -1.61058,2.474997 -2.96457,5.2875006 -3.00781,6.2499996 -0.0432,0.9624991 -0.52813,1.75 -1.07813,1.75 -0.55,0 -1,1.0506557 -1,2.3339844 0,1.2833387 -0.33045,2.66443978 -0.73437,3.06835938 -3.94201,3.94199602 -4.08897,39.54558462 -0.19336,46.83593762 0.51032,0.955039 0.92773,2.867544 0.92773,4.25 0,1.382458 0.45,2.511719 1,2.511719 0.55,0 1,0.607157 1,1.347656 0,1.386558 2.89182,7.762575 3.92383,8.652344 0.31896,0.274999 1.22007,1.745146 2.0039,3.265625 1.833,3.555666 12.38507,14.734375 13.90821,14.734375 0.63966,0 1.16406,0.348508 1.16406,0.773437 0,0.42492 1.575,1.621524 3.5,2.658203 1.925,1.036679 3.5,2.263173 3.5,2.726563 0,0.463389 0.9,0.841797 2,0.841797 1.1,0 2.00185,0.3375 2.00391,0.75 0.002,0.412499 2.13956,1.570566 4.75,2.572265 2.61043,1.001709 5.52738,2.239211 6.48242,2.75 0.95504,0.5108 2.61641,0.927735 3.6914,0.927735 1.07501,0 2.23235,0.45 2.57227,1 0.33992,0.549999 1.9713,1 3.625,1 1.6537,0 3.88797,0.472498 4.96484,1.048828 5.06761,2.71209 54.43406,5.17891 61.91016,3.09375 3.35353,-0.93534 12.29889,-2.61009 20.25,-3.792969 2.0625,-0.30683 3.75,-0.960885 3.75,-1.453125 0,-0.49223 1.32387,-0.896484 2.94141,-0.896484 1.61754,0 3.21867,-0.450001 3.55859,-1 0.33992,-0.55 1.47651,-1 2.52539,-1 1.72276,0 6.61821,-1.799076 11.21094,-4.121094 0.95504,-0.48286 2.41754,-0.878906 3.25,-0.878906 0.83246,0 1.51367,-0.450001 1.51367,-1 0,-0.55 0.45122,-1 1.00391,-1 0.5527,0 3.33726,-1.125002 6.1875,-2.5 2.85022,-1.374999 5.77403,-2.5 6.49609,-2.5 0.72207,0 1.3125,-0.450001 1.3125,-1 0,-0.55 0.4586,-1 1.01953,-1 0.56093,0 2.80233,-1.124999 4.98047,-2.5 2.17814,-1.374999 4.64454,-2.5 5.48047,-2.5 0.83593,0 1.51953,-0.372789 1.51953,-0.830079 0,-0.457289 3.15,-2.559503 7,-4.669921 3.85,-2.110418 7,-4.21068 7,-4.667969 0,-0.45729 0.52066,-0.832031 1.15625,-0.832031 0.63558,0 2.62892,-1.125002 4.43164,-2.5 1.80272,-1.374999 3.65972,-2.5 4.125,-2.5 0.46528,0 1.49427,-0.900001 2.28711,-2 0.79284,-1.099999 1.90877,-2 2.48047,-2 0.5717,0 2.25346,-1.125002 3.73633,-2.5 1.48288,-1.374999 2.96115,-2.5 3.28515,-2.5 0.324,0 1.7129,-1.125002 3.08789,-2.5 1.375,-1.374999 2.84225,-2.5 3.25977,-2.5 0.41752,0 2.47846,-1.575002 4.58008,-3.5 2.10161,-1.924998 4.15967,-3.5 4.57422,-3.5 0.41455,0 2.61,-1.800003 4.87695,-4 2.26695,-2.199998 4.36453,-4 4.66211,-4 0.74322,0 2.71412,-1.688966 8.45703,-7.25 2.69794,-2.612498 5.17868,-4.75 5.51367,-4.75 0.83054,0 37.48633,-36.606088 37.48633,-37.435547 0,-0.36357 2.5875,-3.263893 5.75,-6.44336 3.16251,-3.179471 7.775,-8.158959 10.25,-11.066406 2.475,-2.907456 5.87409,-6.707601 7.55469,-8.443359 1.68059,-1.735749 3.34253,-3.902147 3.69336,-4.816407 0.35083,-0.914249 1.5224,-2.135341 2.60156,-2.71289 1.92833,-1.032009 1.95249,-0.668384 1.49805,21.183594 -0.25432,12.229052 -0.88513,26.0593793 -1.40235,30.7343746 -0.51722,4.6749953 -0.94181,10.4125022 -0.94336,12.7500004 -0.002,2.337497 -0.45195,4.25 -1.00195,4.25 -0.55,0 -1,1.779007 -1,3.953125 0,2.174117 -0.41,4.986621 -0.91016,6.25 -0.50015,1.263378 -1.66608,4.885398 -2.59179,8.046875 -0.92572,3.161476 -2.09072,6.000114 -2.58985,6.308593 -0.49913,0.30848 -0.9082,1.434415 -0.9082,2.501954 0,1.067538 -0.45,1.939453 -1,1.939453 -0.55,0 -1,0.469749 -1,1.042968 0,0.57321 -0.44266,1.585711 -0.98437,2.25 -6.59314,8.085029 -6.01563,4.465156 -6.01563,37.671875 0,30.174895 -8.6e-4,30.174895 11.29102,18.851565 6.21052,-6.227842 14.08553,-14.986267 17.5,-19.462893 3.41445,-4.476635 6.20898,-8.430469 6.20898,-8.787109 0,-0.35663 0.9,-1.614213 2,-2.794922 1.1,-1.180719 2,-2.873477 2,-3.759766 0,-0.886289 0.38621,-2.038047 0.85938,-2.560547 0.47318,-0.522499 1.69032,-3.426174 2.70312,-6.451171 1.01279,-3.024997 2.19964,-5.92672 2.63867,-6.449219 0.43904,-0.5225 0.80618,-1.872501 0.81446,-3 0.008,-1.127496 0.6625,-3.850784 1.45507,-6.050781 0.79258,-2.199998 1.46024,-5.687502 1.48438,-7.75 0.0241,-2.062498 0.49492,-3.75 1.04492,-3.75 0.55,0 1,-2.025003 1,-4.5 0,-2.474998 0.45,-4.5 1,-4.5 0.55,0 1,-0.874414 1,-1.945313 0,-5.362755 9.45999,-17.3184171 15.99023,-20.2089842 1.65575,-0.7328993 3.00977,-1.67410422 3.00977,-2.0898438 0,-0.41573958 0.9,-0.75585938 2,-0.75585938 1.1,0 2,-0.42120051 2,-0.93750002 0,-0.5162995 2.025,-1.2421316 4.5,-1.6132812 4.16996,-0.6253194 6.40355,-2.4492188 3,-2.4492188 -0.825,0 -1.5,-0.4187111 -1.5,-0.9316406 0,-0.5129395 -0.89039,-1.2151872 -1.97851,-1.5605469 -3.48216,-1.1051889 -14.9562,-12.8375061 -17.53126,-17.9257811 -4.95771,-9.796375 -2.57193,-22.918797 5.75977,-31.673828 1.5125,-1.589349 2.75,-3.149461 2.75,-3.46875 0,-0.72827 2.67242,-3.439453 3.39063,-3.439453 0.29317,0 2.61301,-2.02045 5.15625,-4.492188 2.54323,-2.471737 5.93619,-5.269948 7.53906,-6.216797 1.60288,-0.946839 2.91406,-2.07444 2.91406,-2.505859 0,-0.43141 0.9,-0.785156 2,-0.785156 1.1,0 2,-0.378408 2,-0.841797 0,-0.46339 1.575,-1.689884 3.5,-2.726563 1.925,-1.036679 3.5,-2.233283 3.5,-2.658203 0,-0.424929 0.86185,-0.773437 1.91602,-0.773437 1.05416,0 2.06666,-0.337501 2.25,-0.75 0.50243,-1.130469 10.59913,-6.25 12.32617,-6.25 0.82903,0 1.50781,-0.450001 1.50781,-1 0,-0.55 1.125,-1 2.5,-1 1.375,0 2.5,-0.450001 2.5,-1 0,-0.55 0.86185,-1 1.91602,-1 1.05416,0 2.06666,-0.337501 2.25,-0.75 0.40851,-0.919149 9.98497,-4.250002 12.21875,-4.250002 0.88869,0 1.61523,-0.45 1.61523,-1 0,-0.55 1.13121,-1 2.51367,-1 1.38246,0 3.29496,-0.42267 4.25,-0.93945 0.95504,-0.51678 2.97383,-1.19888 4.48633,-1.51758 1.87951,-0.39603 2.75,-1.20666 2.75,-2.56055 0,-1.08952 -0.39375,-1.98242 -0.875,-1.98242 -0.48125,0 -1.14642,-1.35708 -1.47851,-3.01758 -0.3321,-1.6605 -1.90692,-5.82299 -3.5,-9.25 -2.69071,-5.78815 -3.55274,-7.7437 -7.25782,-16.48242 -1.26749,-2.98946 -1.74295,-3.25 -5.93359,-3.25 -2.50574,0 -4.98336,0.42898 -5.50586,0.95117 -0.5225,0.5222 -5.22422,1.47077 -10.44922,2.10938 -7.40491,0.90504 -11.76841,0.88256 -19.78516,-0.10157 -5.65671,-0.69441 -10.52035,-1.64298 -10.80859,-2.10937 -0.28825,-0.46639 -2.07231,-0.84961 -3.96484,-0.84961 -1.89254,0 -3.44141,-0.45 -3.44141,-1 0,-0.55 -0.88406,-1 -1.96484,-1 -2.21269,0 -10.62488,-2.55512 -13.27149,-4.03125 -0.95504,-0.53267 -2.6164,-0.96875 -3.6914,-0.96875 -1.07501,0 -2.23235,-0.45 -2.57227,-1 -0.33992,-0.55 -1.60355,-1.01329 -2.80859,-1.03125 -2.35202,-0.035 -12.30871,-3.25011 -13.37891,-4.32031 -0.35586,-0.35585 -1.92018,-0.64844 -3.47851,-0.64844 -1.55833,0 -2.83399,-0.45 -2.83399,-1 0,-0.55 -1.575,-1 -3.5,-1 -1.925,0 -3.5,-0.37079 -3.5,-0.82617 0,-0.45538 -3.6,-1.68609 -8,-2.73438 -4.39999,-1.0483 -8,-2.25054 -8,-2.67187 0,-0.42133 -1.35621,-0.76758 -3.01367,-0.76758 -1.65746,0 -3.79496,-0.43072 -4.75,-0.95898 -1.60967,-0.89037 -15.51035,-4.63244 -21.23633,-5.7168 -1.375,-0.26039 -3.4,-0.85899 -4.5,-1.33008 -1.1,-0.4711 -3.35,-1.09301 -5,-1.38086 -1.65,-0.28786 -5.025,-0.93968 -7.5,-1.44922 -2.475,-0.50954 -7.875,-1.4772 -12,-2.15039 -4.125,-0.67319 -8.27157,-1.62092 -9.21484,-2.10547 -0.94327,-0.48454 -9.26828,-1.14386 -18.5,-1.46679 -4.72742,-0.16537 -9.23819,-0.20909 -13.64844,-0.1211 z m -35.60938,35.3125 c 1.74595,0.0783 1.33118,1.72695 0.39454,10.98438 -0.35598,3.51843 -0.10394,8.61493 0.5957,12 1.34197,6.49285 4.02975,13.38281 5.21875,13.38281 0.42026,0 0.76367,0.62737 0.76367,1.39258 0,1.81167 10.79771,12.607421 12.60938,12.607421 0.7652,0 1.39062,0.340119 1.39062,0.755859 0,1.114639 5.84796,3.5108 11,4.505859 9.147,1.766619 12,1.966419 12,0.84375 0,-0.609169 1.68275,-1.107928 3.75,-1.111328 2.0625,-0.003 5.03791,-0.678391 6.61328,-1.5 1.57537,-0.821609 3.48787,-1.49414 4.25,-1.49414 0.76213,0 1.38672,-0.450001 1.38672,-1 0,-0.55 0.4678,-1 1.04102,-1 0.57321,0 1.70809,-0.562501 2.52148,-1.25 5.08628,-4.299041 7.28015,-6.623541 8.96484,-9.500001 1.04691,-1.7875 2.25608,-3.25 2.6875,-3.25 0.43141,0 0.78516,-1.125 0.78516,-2.5 0,-1.375 0.35133,-2.5 0.78125,-2.5 1.9254,0 3.4346,-9.41306 3.04883,-19.01758 -0.39555,-9.84806 -0.36984,-9.98242 1.88476,-9.98242 1.25694,0 2.28516,0.45 2.28516,1 0,0.55 1.54887,1 3.44141,1 1.89253,0 3.71867,0.45 4.05859,1 0.33992,0.55 1.47512,1 2.52344,1 2.1648,0 10.59803,2.57479 13.21289,4.0332 0.95504,0.53267 2.42374,0.9668 3.26367,0.9668 0.83993,0 2.30863,0.39091 3.26367,0.86719 2.82149,1.40706 8.53005,3.32502 11.49805,3.86328 1.51923,0.27552 3.00786,0.90013 3.30859,1.38672 0.30072,0.48658 1.42075,0.88281 2.48828,0.88281 1.06754,0 1.94141,0.45 1.94141,1 0,0.55 0.84764,1 1.88477,1 1.03713,0 3.17463,0.67253 4.75,1.49414 1.57536,0.82161 3.65894,1.49661 4.6289,1.5 0.96996,0.003 2.54496,0.4048 3.5,0.89063 0.95504,0.48584 3.08633,1.43689 4.73633,2.11523 1.65,0.67834 3.675,1.53988 4.5,1.91406 0.825,0.37419 4.0875,1.54125 7.25,2.5918 4.15172,1.37914 5.75,2.40857 5.75,3.70312 0,0.9861 -0.675,1.79102 -1.5,1.79102 -0.825,0 -1.49968,0.3375 -1.5,0.75 -3.2e-4,0.4125 -2.92084,2.1 -6.48828,3.75 -3.56743,1.65 -6.49081,3.3375 -6.49805,3.75 -0.007,0.4125 -1.13867,0.75 -2.51367,0.75 -1.375,0 -2.5,0.45 -2.5,1 0,0.549998 -0.55268,1.000001 -1.22851,1.000001 -1.1556,0 -12.88889,4.106543 -17.27149,6.044921 -1.1,0.48652 -5.825,2.049115 -10.5,3.470704 -4.675,1.421588 -9.28129,3.012366 -10.23633,3.535156 -0.95504,0.522789 -3.31754,0.949219 -5.25,0.949219 -1.93246,0 -3.51367,0.45 -3.51367,1 0,0.549999 -1.2375,1.017519 -2.75,1.037109 -1.5125,0.0196 -5.45,0.687556 -8.75,1.484375 -3.3,0.796819 -8.33637,1.454301 -11.19141,1.462891 -2.85503,0.009 -5.46867,0.465625 -5.80859,1.015625 -0.8143,1.317558 -46.46122,1.317558 -48.5,0 -0.825,-0.53316 -3.3,-0.97167 -5.5,-0.97461 -4.84902,-0.006 -25.40551,-2.942365 -27.5,-3.927734 -0.825,-0.38812 -3.525,-0.834538 -6,-0.992188 -2.475,-0.157659 -4.95,-0.633001 -5.5,-1.05664 -0.55,-0.42364 -2.575,-1.034812 -4.5,-1.357422 -6.20032,-1.039119 -16.98955,-3.652503 -27.5,-6.662109 -1.65,-0.47247 -6.375,-1.798457 -10.5,-2.947266 -4.125,-1.148809 -8.28129,-2.53823 -9.23633,-3.085942 -0.95504,-0.54771 -2.42374,-0.99609 -3.26367,-0.99609 -0.83993,0 -2.30863,-0.40325 -3.26367,-0.89844 -0.95504,-0.49518 -4.43634,-1.71425 -7.73633,-2.70703 -3.3,-0.99278 -6.42867,-2.16258 -6.95117,-2.59961 -0.5225,-0.43704 -2.21,-0.79492 -3.75,-0.79492 -1.54,0 -2.79883,-0.4023 -2.79883,-0.89453 0,-0.49224 -1.8,-1.16724 -4,-1.5 -2.2,-0.33277 -5.8,-0.87622 -8,-1.20899 -5.89461,-0.8916 -5.06177,-3.02534 1.75,-4.48242 3.1625,-0.67648 6.17672,-1.6093 6.69922,-2.07226 0.5225,-0.46297 1.99121,-0.8418 3.26367,-0.8418 1.27246,0 3.09574,-0.40594 4.05078,-0.90234 0.95504,-0.49639 3.53633,-1.37378 5.73633,-1.95118 9.51801,-2.49807 16.13874,-4.40365 18,-5.17968 1.1,-0.45863 3.8,-1.36719 6,-2.01953 2.2,-0.65234 5.47705,-1.80739 7.2832,-2.56641 1.80616,-0.75902 4.36753,-1.38086 5.69141,-1.38086 1.32388,0 2.68547,-0.45 3.02539,-1 0.33992,-0.55 1.72226,-1 3.07227,-1 1.34999,0 3.23636,-0.39447 4.1914,-0.87695 2.72928,-1.37884 8.34502,-2.9828 13.00782,-3.71485 2.34968,-0.3689 4.51332,-1.06131 4.80859,-1.53906 0.29527,-0.47776 2.28484,-0.86914 4.41992,-0.86914 2.13508,0 4.16008,-0.45 4.5,-1 0.33992,-0.55 1.9713,-1 3.625,-1 1.6537,0 3.76507,-0.40321 4.69141,-0.89648 0.92634,-0.49326 3.48359,-1.05576 5.68359,-1.25 1.12288,-0.0991 1.94536,-0.24681 2.52734,-0.22071 z" /></g></svg>
